<svg width="34" height="25" viewBox="0 0 34 25" fill="none" xmlns="http://www.w3.org/2000/svg">
<path d="M4.9813 0.306747C4.74669 0.47546 4.49532 0.751534 4.44505 0.920246C4.3445 1.19632 4.17692 1.22699 2.92007 1.22699C1.37834 1.22699 0.473412 1.47239 0.188527 1.96319C-0.0628423 2.40798 -0.0628423 21.0583 0.188527 21.5031C0.473412 21.9939 1.37834 22.2393 2.90332 22.2393H4.32774L4.52884 22.6994C4.78021 23.2515 5.19916 23.4969 6.10409 23.6043C6.67386 23.681 6.75765 23.7577 6.80792 24.1258C6.89171 24.9233 7.09281 25 8.9697 25C10.8633 25 11.232 24.8466 11.232 24.0337V23.6196H17.0973H22.9626V24.0644C22.9626 24.862 23.2978 25 25.2082 25C27.0851 25 27.2526 24.9387 27.3532 24.1564C27.3867 23.8037 27.4872 23.681 27.8224 23.6503C28.7106 23.5583 29.0457 23.4356 29.4312 23.0521C29.8166 22.6687 29.8334 22.5613 29.8334 20.4755V18.2822L30.4366 18.1748C30.8388 18.1135 31.0734 17.9755 31.1237 17.7761C31.1908 17.546 31.3583 17.4847 31.9281 17.4847C33.1179 17.4847 33.1849 17.4233 33.1849 16.319V15.3374H32.1795C31.2243 15.3374 31.174 15.3221 31.174 14.954C31.174 14.5552 30.755 14.2638 30.1853 14.2638C29.8334 14.2638 29.8334 14.2331 29.8334 7.65337V1.04294L29.2636 0.521473L28.6938 0H17.047C5.61811 0 5.40025 0 4.9813 0.306747ZM28.8949 0.858896C29.1295 1.07362 29.163 1.90184 29.163 7.68405V14.2638H26.7499C25.426 14.2638 24.2194 14.3098 24.0686 14.3558C23.9178 14.4018 23.8005 14.6012 23.8005 14.7853C23.8005 15.2147 23.4988 15.4908 23.0296 15.4908C22.4431 15.4908 21.27 16.411 20.8343 17.2239L20.4321 17.9448H18.5553C16.5108 17.9448 16.2594 18.0215 16.2594 18.7423C16.2594 19.1411 16.2259 19.1564 15.3042 19.2025L14.3322 19.2485V20.2454V21.2423L15.1701 21.2883C15.6561 21.319 16.1421 21.4417 16.3264 21.5951C16.5946 21.8252 17.1308 21.8558 20.8511 21.8558C25.5098 21.8558 25.5936 21.8405 26.6326 20.8282C27.1688 20.3067 27.6548 19.2331 27.6548 18.6043C27.6548 18.2822 27.7386 18.2515 28.4089 18.2515H29.163V20.3528C29.163 22.0859 29.1128 22.5 28.8782 22.7301C28.6268 22.9908 28.0403 23.0061 17.0973 23.0061C5.98678 23.0061 5.56783 22.9908 5.2997 22.7147C5.03158 22.4387 4.99806 21.5798 4.91427 11.9325L4.83048 1.45705L5.19916 1.02761L5.55107 0.613497H17.0973C27.3699 0.613497 28.6603 0.644171 28.8949 0.858896ZM4.32774 2.2546C4.37802 2.60736 4.36126 2.60736 2.53464 2.60736C1.51241 2.60736 0.674508 2.56135 0.674508 2.5C0.674508 2.45399 0.808572 2.26994 0.959393 2.11656C1.194 1.87117 1.44537 1.84049 2.75249 1.87117C4.19368 1.91718 4.27747 1.93252 4.32774 2.2546ZM4.32774 3.71166C4.27747 4.04908 4.19368 4.06442 2.53464 4.11043C0.775056 4.15644 0.372865 4.04908 0.557202 3.61963C0.640992 3.42025 0.992909 3.37423 2.51788 3.37423C4.36126 3.37423 4.37802 3.37423 4.32774 3.71166ZM4.32774 5.16871C4.37802 5.52147 4.36126 5.52147 2.45085 5.52147C0.674508 5.52147 0.506928 5.4908 0.506928 5.2454C0.506928 5.09202 0.557202 4.90798 0.624234 4.84663C0.691266 4.80061 1.52916 4.76994 2.50113 4.78528C4.19368 4.83129 4.27747 4.84663 4.32774 5.16871ZM4.27747 6.59509C4.27747 6.97853 4.27747 6.97853 2.53464 7.02454C1.57944 7.03988 0.724782 7.0092 0.624234 6.91718C0.540444 6.84049 0.523686 6.62577 0.590718 6.45705C0.691266 6.13497 0.791814 6.11963 2.48437 6.16564C4.27747 6.21166 4.27747 6.21166 4.27747 6.59509ZM4.36126 8.05215V8.43558H2.51788H0.674508V8.05215V7.66871H2.51788H4.36126V8.05215ZM4.27747 9.5092C4.27747 9.89264 4.27747 9.89264 2.53464 9.93865C1.57944 9.95399 0.724782 9.92331 0.624234 9.83129C0.540444 9.7546 0.523686 9.53988 0.590718 9.37117C0.691266 9.04908 0.791814 9.03374 2.48437 9.07975C4.27747 9.12577 4.27747 9.12577 4.27747 9.5092ZM4.36126 10.9663V11.365L2.48437 11.319C0.942635 11.2883 0.590718 11.227 0.57396 11.0429C0.557202 10.6135 0.691266 10.5828 2.53464 10.5828H4.36126V10.9663ZM4.27747 12.4233C4.27747 12.8067 4.27747 12.8067 2.48437 12.8528L0.674508 12.8988V12.4233V11.9479L2.48437 11.9939C4.27747 12.0399 4.27747 12.0399 4.27747 12.4233ZM4.32774 13.8344C4.27747 14.1718 4.19368 14.1871 2.53464 14.2331C0.74154 14.2791 0.423138 14.2025 0.607476 13.7577C0.691266 13.5429 0.992909 13.4969 2.5514 13.4969C4.36126 13.4969 4.37802 13.4969 4.32774 13.8344ZM4.27747 15.3528C4.27747 15.7209 4.24395 15.7209 2.5514 15.7362C0.992909 15.7515 0.808572 15.7209 0.65775 15.4448C0.389623 15 0.590718 14.954 2.5514 14.9693C4.24395 15 4.27747 15 4.27747 15.3528ZM30.5372 15.0307C30.5707 15.1074 30.5707 15.7362 30.5372 16.411L30.4702 17.638H28.9787H27.4872L27.1688 17.0552C26.7164 16.2577 26.1801 15.8742 24.7557 15.3528C24.5043 15.2607 24.3367 15.1074 24.387 15.0307C24.5211 14.8313 30.4534 14.8313 30.5372 15.0307ZM25.6104 16.365C27.1856 17.4233 27.2526 19.6012 25.7612 20.7209C24.6049 21.5798 22.5939 21.2883 21.7225 20.1074C20.6668 18.6963 21.1527 17.0552 22.8788 16.1963C23.5491 15.8589 24.9903 15.9509 25.6104 16.365ZM32.6822 16.411C32.6822 16.8405 32.6487 16.8712 32.0119 16.8712C31.5594 16.8712 31.2913 16.7945 31.241 16.6411C31.0399 16.181 31.3081 15.9509 32.0119 15.9509C32.6487 15.9509 32.6822 15.9816 32.6822 16.411ZM4.27747 16.7945C4.27747 17.0859 4.14341 17.1012 2.48437 17.1472L0.674508 17.1933V16.7945V16.3957L2.48437 16.4417C4.14341 16.4877 4.27747 16.5031 4.27747 16.7945ZM4.32774 18.2055C4.37802 18.5583 4.36126 18.5583 2.53464 18.5583H0.674508V18.1748V17.7761L2.48437 17.8221C4.19368 17.8681 4.27747 17.8834 4.32774 18.2055ZM20.5327 19.1718C20.5997 19.5092 20.8678 20.0767 21.136 20.4294C21.4041 20.7975 21.622 21.135 21.622 21.1963C21.622 21.2423 20.5662 21.3037 19.2758 21.3037L16.9297 21.3344V19.9387V18.5583H18.6726H20.4154L20.5327 19.1718ZM4.27747 19.7086C4.27747 20 4.14341 20.0153 2.48437 20.0613L0.674508 20.1074V19.7086V19.3098L2.48437 19.3558C4.14341 19.4018 4.27747 19.4172 4.27747 19.7086ZM16.2259 20.2761C16.2762 20.6902 16.2427 20.7055 15.6059 20.7055C14.9523 20.7055 14.9188 20.6902 14.9188 20.2301C14.9188 19.7853 14.9523 19.7699 15.5556 19.816C16.0918 19.862 16.1756 19.9233 16.2259 20.2761ZM4.2272 21.089C4.27747 21.2883 4.27747 21.5031 4.2272 21.5491C4.17692 21.5951 3.52336 21.6258 2.78601 21.6258C1.37834 21.6258 0.674508 21.3957 0.674508 20.9202C0.674508 20.7515 1.00967 20.7055 2.41734 20.7055C4.12665 20.7055 4.16016 20.7055 4.2272 21.089ZM10.4779 24.0031C10.4779 24.2791 10.3439 24.3098 9.01997 24.3558L7.54527 24.4018V24.0031V23.6043L9.01997 23.6503C10.3439 23.6963 10.4779 23.727 10.4779 24.0031ZM26.6493 24.0031C26.6493 24.3865 26.6326 24.3865 25.1411 24.3865C23.6497 24.3865 23.6329 24.3865 23.6329 24.0031C23.6329 23.6196 23.6497 23.6196 25.1411 23.6196C26.6326 23.6196 26.6493 23.6196 26.6493 24.0031Z" fill="#4DB6AC"/>
<path d="M12.5728 2.77587C7.15996 3.60409 4.78033 9.64703 8.3833 13.3894C9.30498 14.3556 10.2434 14.9078 11.5506 15.3065C16.0417 16.6869 20.7842 13.5581 20.7842 9.23292C20.7842 7.40777 20.2144 6.08875 18.8905 4.80041C17.1812 3.14397 14.9189 2.42311 12.5728 2.77587ZM15.673 3.60409C17.5164 4.07955 19.3262 5.75133 19.896 7.49979C20.2647 8.69611 20.1306 10.4139 19.5609 11.5335C18.9576 12.7605 17.7845 13.8648 16.4439 14.463C15.4384 14.9078 15.2038 14.9538 13.7458 14.9538C12.2879 14.9538 12.0533 14.9078 11.0311 14.4476C9.60663 13.8035 8.66818 12.9446 7.96435 11.5949C7.24375 10.1992 7.09293 9.23292 7.44485 8.00593C7.91407 6.31881 8.75197 5.16851 10.1261 4.32495C11.8354 3.26666 13.4777 3.06728 15.673 3.60409Z" fill="#4DB6AC"/>
<path d="M12.2715 4.15658C11.5341 4.35597 11.4336 4.67806 11.9531 5.18419C12.6569 5.87437 13.2602 7.28542 12.9921 7.65352C12.9418 7.74554 12.5396 7.6075 12.0704 7.33143C10.3946 6.38051 8.86961 6.67192 8.28309 8.05229C7.94793 8.88051 8.01496 10.2149 8.43391 10.7977L8.71879 11.1965L9.74103 10.5676C10.4281 10.1382 10.9979 9.90812 11.5006 9.84677C12.2547 9.77008 12.4391 9.92345 12.0034 10.2609C11.6514 10.5216 11.0649 11.7486 11.0649 12.1934C11.0649 12.8682 11.6682 13.7425 12.3385 14.0339C13.1429 14.3713 15.2712 14.31 15.6901 13.9265C15.9582 13.6965 15.9415 13.6351 15.4387 13.0676C14.8187 12.3468 14.4165 11.5185 14.4165 10.9664C14.4165 10.4756 14.6008 10.4909 15.422 10.9817C16.2934 11.5032 17.4664 11.6412 18.187 11.2885C19.3266 10.721 19.7623 9.06456 19.1422 7.76088C18.8238 7.13204 18.7401 7.05536 18.4552 7.19339C18.2708 7.28542 18.1033 7.40812 18.0697 7.4848C17.8519 7.96026 15.7069 8.75781 15.3885 8.4664C15.3047 8.38971 15.422 8.0983 15.6901 7.7302C15.9415 7.40812 16.1761 6.88664 16.2096 6.56456C16.4442 4.9848 15.6733 4.14125 13.8802 4.04922C13.2937 4.01855 12.5731 4.06456 12.2715 4.15658ZM14.6344 4.80075C15.7571 5.24554 15.975 6.11977 15.2041 7.19339C14.7852 7.77622 14.7349 7.79155 14.2657 7.65352C13.897 7.53082 13.7462 7.37744 13.6791 6.97867C13.6121 6.7026 13.3607 6.0891 13.0926 5.61364C12.8413 5.13818 12.6569 4.72407 12.7072 4.67806C12.8748 4.52468 14.0981 4.60137 14.6344 4.80075ZM11.1152 7.57683C12.1039 7.99094 12.2547 8.17499 12.0369 8.7118C11.8693 9.09523 11.7352 9.2026 11.3833 9.2026C11.1487 9.2026 10.5119 9.40198 9.97564 9.64738C9.42263 9.90812 8.93665 10.0768 8.85286 10.0308C8.635 9.90812 8.70203 8.77315 8.9534 8.221C9.33884 7.37744 10.0762 7.16272 11.1152 7.57683ZM14.316 8.45106C14.8354 8.8345 14.8857 9.38664 14.4165 9.81609C13.7462 10.4296 12.7407 10.0001 12.7407 9.12591C12.7407 8.75781 12.858 8.52775 13.1094 8.37437C13.5954 8.05229 13.7797 8.06763 14.316 8.45106ZM18.6898 8.57376C18.8238 9.15658 18.5222 10.1995 18.0865 10.5983C17.5335 11.1044 16.0588 10.905 15.4387 10.2149C15.2712 10.0308 15.2712 9.90812 15.4555 9.55536C15.6231 9.23327 15.8409 9.11057 16.4107 9.01855C16.8129 8.9572 17.4162 8.72714 17.7513 8.52775C18.5222 8.03695 18.5557 8.03695 18.6898 8.57376ZM13.8132 11.4112C13.9473 12.04 14.2992 12.8069 14.6846 13.2977C14.9528 13.6504 14.9528 13.6504 14.316 13.6658C12.8915 13.7118 12.2212 13.4511 11.9028 12.7149C11.6514 12.1627 11.8693 11.3652 12.4558 10.7824C12.7575 10.4756 12.8245 10.4603 13.2434 10.6597C13.5618 10.813 13.7462 11.0431 13.8132 11.4112Z" fill="#4DB6AC"/>
<path d="M22.2425 3.00601C22.1755 3.06736 22.1252 3.20539 22.1252 3.32809C22.1252 3.4968 22.628 3.52748 24.773 3.4968C26.9851 3.45079 27.404 3.42012 27.404 3.22073C27.404 3.02134 26.9851 2.99067 24.8735 2.94466C23.4994 2.92932 22.3096 2.95999 22.2425 3.00601Z" fill="#4DB6AC"/>
<path d="M22.1252 4.83141C22.1252 5.0308 22.4772 5.06148 24.773 5.0308C26.3818 5.00013 27.404 4.92344 27.404 4.83141C27.404 4.73939 26.3818 4.6627 24.773 4.63203C22.4772 4.60135 22.1252 4.63203 22.1252 4.83141Z" fill="#4DB6AC"/>
<path d="M22.1252 6.44167C22.1252 6.74842 22.1923 6.74842 24.773 6.71774C26.9851 6.67173 27.404 6.64106 27.404 6.44167C27.404 6.24228 26.9851 6.21161 24.773 6.1656C22.1923 6.13492 22.1252 6.13492 22.1252 6.44167Z" fill="#4DB6AC"/>
<path d="M6.62356 19.4938C6.38895 19.8313 6.85817 19.954 8.31611 19.9079C9.50593 19.8773 9.80757 19.8159 9.80757 19.6319C9.80757 19.4478 9.50593 19.3865 8.26584 19.3558C7.26036 19.3251 6.69059 19.3711 6.62356 19.4938Z" fill="#4DB6AC"/>
<path d="M6.62275 20.8588C6.38814 21.1962 6.79033 21.3189 8.198 21.3189C9.73973 21.3189 9.92407 21.2729 9.77324 20.9201C9.70621 20.7514 9.32078 20.7054 8.21475 20.7054C7.39361 20.7054 6.67302 20.7668 6.62275 20.8588Z" fill="#4DB6AC"/>
<path d="M22.6278 16.9631C22.5272 17.1778 22.4602 17.9907 22.4602 18.7883C22.4602 20.9662 22.6948 21.0735 24.8901 19.8466C26.9513 18.6962 26.9681 18.4969 24.9739 17.3772C23.3484 16.4723 22.8624 16.3803 22.6278 16.9631ZM24.622 17.9447C25.175 18.2361 25.6442 18.5275 25.6442 18.5889C25.6442 18.6349 25.3258 18.8496 24.9404 19.049C24.5382 19.2484 24.0187 19.5398 23.7673 19.6932L23.2981 19.9693V18.6349C23.2981 17.8987 23.3651 17.3312 23.4489 17.3619C23.5327 17.3772 24.0522 17.6533 24.622 17.9447Z" fill="#4DB6AC"/>
</svg>
